<svg width="521" height="520" viewBox="0 0 521 520" fill="none" xmlns="http://www.w3.org/2000/svg">
<path d="M0 268.762C0 124.892 116.63 8.26172 260.5 8.26172C404.37 8.26172 521 124.892 521 268.762V519.482H0V268.762Z" fill="url(#paint0_linear_2187_9197)"/>
<path fill-rule="evenodd" clip-rule="evenodd" d="M153.527 106.594L48.0001 79.1758V478.264L153.527 505.682V106.594Z" fill="#9E88C2" stroke="#5D399A" stroke-width="3.95727" stroke-linecap="round" stroke-linejoin="round"/>
<path fill-rule="evenodd" clip-rule="evenodd" d="M486.39 441.957L406.814 462.068C392.938 465.575 378.412 465.607 364.521 462.161L282.871 441.908C274.046 439.718 267.849 431.796 267.849 422.703V261.226C267.849 254.02 272.716 247.723 279.69 245.907L359.136 225.226C377.071 220.557 395.912 220.633 413.809 225.447L489.611 245.838C496.523 247.698 501.328 253.965 501.328 261.124V422.773C501.328 431.834 495.174 439.737 486.39 441.957Z" fill="white" stroke="#5D399A" stroke-width="3.95727" stroke-linecap="round" stroke-linejoin="round"/>
<path fill-rule="evenodd" clip-rule="evenodd" d="M267.849 423.863L374.108 450.181C381.707 452.063 389.647 452.046 397.238 450.13L501.328 423.863V265.588L413.315 289.031C395.197 293.858 376.15 293.901 358.01 289.159L267.849 265.588" fill="#E6E0F0"/>
<path d="M267.849 423.863L374.108 450.181C381.707 452.063 389.647 452.046 397.238 450.13L501.328 423.863V265.588L413.315 289.031C395.197 293.858 376.15 293.901 358.01 289.159L267.849 265.588" stroke="#5D399A" stroke-width="3.95727" stroke-linecap="round" stroke-linejoin="round"/>
<path fill-rule="evenodd" clip-rule="evenodd" d="M461.755 249.761C461.755 238.852 428.023 229.975 386.568 229.975C345.11 229.975 311.378 238.852 311.378 249.761C311.378 260.67 345.11 269.547 386.568 269.547C428.023 269.547 461.755 260.67 461.755 249.761Z" fill="#9E88C2" stroke="#5D399A" stroke-width="3.95727" stroke-linecap="round" stroke-linejoin="round"/>
<path fill-rule="evenodd" clip-rule="evenodd" d="M410.311 247.782C410.311 244.509 399.659 241.846 386.568 241.846C373.476 241.846 362.824 244.509 362.824 247.782C362.824 251.054 373.476 253.718 386.568 253.718C399.659 253.718 410.311 251.054 410.311 247.782Z" fill="white" stroke="#5D399A" stroke-width="3.95727" stroke-linejoin="round"/>
<path d="M400.417 283.396L493.413 257.674" stroke="#BEB0D7" stroke-width="3.95727" stroke-linecap="round" stroke-linejoin="round"/>
<path fill-rule="evenodd" clip-rule="evenodd" d="M408.185 338.485L491.896 316.268V305.16L408.185 327.376V338.485Z" fill="#9E88C2" stroke="#5D399A" stroke-width="3.95727" stroke-linecap="round" stroke-linejoin="round"/>
<path fill-rule="evenodd" clip-rule="evenodd" d="M408.185 385.137L491.896 362.921V351.812L408.185 374.029V385.137Z" fill="#9E88C2" stroke="#5D399A" stroke-width="3.95727" stroke-linecap="round" stroke-linejoin="round"/>
<path fill-rule="evenodd" clip-rule="evenodd" d="M408.185 431.793L491.896 409.577V398.469L408.185 420.685V431.793Z" fill="#9E88C2" stroke="#5D399A" stroke-width="3.95727" stroke-linecap="round" stroke-linejoin="round"/>
<path fill-rule="evenodd" clip-rule="evenodd" d="M408.185 361.811L491.896 339.594V328.486L408.185 350.703V361.811Z" fill="#9E88C2" stroke="#5D399A" stroke-width="3.95727" stroke-linecap="round" stroke-linejoin="round"/>
<path fill-rule="evenodd" clip-rule="evenodd" d="M408.185 408.467L491.896 386.251V375.143L408.185 397.359V408.467Z" fill="#9E88C2" stroke="#5D399A" stroke-width="3.95727" stroke-linecap="round" stroke-linejoin="round"/>
<path fill-rule="evenodd" clip-rule="evenodd" d="M361.059 317.913L277.224 296.221V285.375L361.059 307.067V317.913Z" fill="#9E88C2" stroke="#5D399A" stroke-width="3.95727" stroke-linecap="round" stroke-linejoin="round"/>
<path fill-rule="evenodd" clip-rule="evenodd" d="M361.059 340.69L277.224 318.998V308.152L361.059 329.844V340.69Z" fill="#9E88C2" stroke="#5D399A" stroke-width="3.95727" stroke-linecap="round" stroke-linejoin="round"/>
<path fill-rule="evenodd" clip-rule="evenodd" d="M361.059 386.243L277.224 364.551V353.705L361.059 375.397V386.243Z" fill="#9E88C2" stroke="#5D399A" stroke-width="3.95727" stroke-linecap="round" stroke-linejoin="round"/>
<path fill-rule="evenodd" clip-rule="evenodd" d="M361.059 431.793L277.224 410.102V399.256L361.059 420.948V431.793Z" fill="#9E88C2" stroke="#5D399A" stroke-width="3.95727" stroke-linecap="round" stroke-linejoin="round"/>
<path fill-rule="evenodd" clip-rule="evenodd" d="M361.059 363.465L277.224 341.774V330.928L361.059 352.619V363.465Z" fill="#9E88C2" stroke="#5D399A" stroke-width="3.95727" stroke-linecap="round" stroke-linejoin="round"/>
<path fill-rule="evenodd" clip-rule="evenodd" d="M361.059 409.018L277.224 387.326V376.48L361.059 398.172V409.018Z" fill="#9E88C2" stroke="#5D399A" stroke-width="3.95727" stroke-linecap="round" stroke-linejoin="round"/>
<path d="M372.717 283.396L275.764 257.674" stroke="#BEB0D7" stroke-width="3.95727" stroke-linecap="round" stroke-linejoin="round"/>
<path fill-rule="evenodd" clip-rule="evenodd" d="M431.057 311.847L467.632 302.703C471.155 301.822 473.627 298.657 473.627 295.025V288.778C473.627 286.592 471.855 284.82 469.67 284.82C469.346 284.82 469.024 284.86 468.71 284.938L432.135 294.082C428.611 294.963 426.14 298.129 426.14 301.761V308.008C426.14 310.193 427.911 311.965 430.097 311.965C430.42 311.965 430.743 311.926 431.057 311.847Z" fill="#BEB0D7" stroke="#5D399A" stroke-width="3.95727"/>
<path d="M372.717 447.623V293.289" stroke="#5D399A" stroke-width="3.95727" stroke-linecap="round" stroke-linejoin="round"/>
<path d="M396.46 447.623V293.289" stroke="#5D399A" stroke-width="3.95727" stroke-linecap="round" stroke-linejoin="round"/>
<path fill-rule="evenodd" clip-rule="evenodd" d="M153.527 105.996L294.23 70.3809V470.065L153.527 505.681V105.996Z" fill="#E6E0F0" stroke="#5D399A" stroke-width="3.95727" stroke-linecap="round" stroke-linejoin="round"/>
<path fill-rule="evenodd" clip-rule="evenodd" d="M162.321 120.229L285.436 87.9688V253.572L162.321 285.832V120.229Z" fill="white" stroke="#5D399A" stroke-width="3.95727" stroke-linejoin="round"/>
<path fill-rule="evenodd" clip-rule="evenodd" d="M162.321 313.698L285.436 281.438V447.041L162.321 479.301V313.698Z" fill="white" stroke="#5D399A" stroke-width="3.95727" stroke-linejoin="round"/>
<path fill-rule="evenodd" clip-rule="evenodd" d="M232.673 317.855L272.246 307.818V359.339L232.673 369.376V317.855Z" fill="#E6E0F0" stroke="#5D399A" stroke-width="3.95727" stroke-linecap="round" stroke-linejoin="round"/>
<path fill-rule="evenodd" clip-rule="evenodd" d="M175.512 142.274L232.673 127.543V161.179L175.512 175.91V142.274Z" fill="#E6E0F0" stroke="#5D399A" stroke-width="3.95727" stroke-linecap="round" stroke-linejoin="round"/>
<path fill-rule="evenodd" clip-rule="evenodd" d="M184.306 149.527L197.497 145.92V162.202L184.306 165.664V149.527Z" fill="#9E88C2" stroke="#5D399A" stroke-width="3.95727" stroke-linecap="round" stroke-linejoin="round"/>
<path fill-rule="evenodd" clip-rule="evenodd" d="M210.688 142.429L223.879 138.822V155.104L210.688 158.566V142.429Z" fill="#9E88C2" stroke="#5D399A" stroke-width="3.95727" stroke-linecap="round" stroke-linejoin="round"/>
<path fill-rule="evenodd" clip-rule="evenodd" d="M206.784 214.297L239.815 206.285C243.364 205.424 245.864 202.246 245.864 198.594V194.133C245.864 191.948 244.092 190.176 241.906 190.176C241.592 190.176 241.279 190.213 240.974 190.287L207.943 198.299C204.393 199.16 201.894 202.338 201.894 205.991V210.451C201.894 212.637 203.666 214.408 205.851 214.408C206.166 214.408 206.479 214.371 206.784 214.297Z" fill="#BEB0D7" stroke="#5D399A" stroke-width="3.95727"/>
<path d="M48 469.53L155.229 496.889L294.23 461.713" stroke="#5D399A" stroke-width="3.95727" stroke-linecap="round" stroke-linejoin="round"/>
<path d="M48 271.666L155.229 299.025L294.23 263.85" stroke="#5D399A" stroke-width="3.95727" stroke-linecap="round" stroke-linejoin="round"/>
<path fill-rule="evenodd" clip-rule="evenodd" d="M48 78.6261L156.101 105.558L294.23 70.9314L186.129 44L48 78.6261Z" fill="white" stroke="#5D399A" stroke-width="3.95727" stroke-linecap="round" stroke-linejoin="round"/>
<path d="M261.253 342.993C264.896 342.993 267.849 338.071 267.849 332C267.849 325.929 264.896 321.008 261.253 321.008C257.611 321.008 254.658 325.929 254.658 332C254.658 338.071 257.611 342.993 261.253 342.993Z" fill="#9E88C2" stroke="#5D399A" stroke-width="3.95727" stroke-linecap="round" stroke-linejoin="round"/>
<path d="M245.864 360.582C248.292 360.582 250.261 357.629 250.261 353.986C250.261 350.344 248.292 347.391 245.864 347.391C243.435 347.391 241.467 350.344 241.467 353.986C241.467 357.629 243.435 360.582 245.864 360.582Z" fill="#9E88C2" stroke="#5D399A" stroke-width="3.95727" stroke-linecap="round" stroke-linejoin="round"/>
<path d="M265.65 342.993C269.293 342.993 272.246 338.071 272.246 332C272.246 325.929 269.293 321.008 265.65 321.008C262.008 321.008 259.055 325.929 259.055 332C259.055 338.071 262.008 342.993 265.65 342.993Z" fill="#9E88C2" stroke="#5D399A" stroke-width="3.95727" stroke-linecap="round" stroke-linejoin="round"/>
<path d="M250.261 360.582C252.689 360.582 254.658 357.629 254.658 353.986C254.658 350.344 252.689 347.391 250.261 347.391C247.832 347.391 245.864 350.344 245.864 353.986C245.864 357.629 247.832 360.582 250.261 360.582Z" fill="#9E88C2" stroke="#5D399A" stroke-width="3.95727" stroke-linecap="round" stroke-linejoin="round"/>
<defs>
<linearGradient id="paint0_linear_2187_9197" x1="89.5837" y1="64.2425" x2="466.444" y2="568.69" gradientUnits="userSpaceOnUse">
<stop stop-color="#04305E"/>
<stop offset="0.47" stop-color="#07509D"/>
<stop offset="1" stop-color="#00ADA9"/>
</linearGradient>
</defs>
</svg>
